# xmcd
#
# Track frame offsets: 
#        150
#        11818
#        21422
#        38615
#        59367
#        74500
#        87883
#        107166
#        122751
#        146703
#        156470
#
# Disc length: 2333 seconds
#
# Revision: 1
# Processed by: cddbd v1.5.2PL0 Copyright (c) Steve Scherf et al.
# Submitted via: ExactAudioCopy v0.99pb3
#
DISCID=9c091b0b
DTITLE=Bain Wolfkind - Music For Lovers and Gangsters
DYEAR=2005
DGENRE=Folk
TTITLE0=Pimp Stick
TTITLE1=Shiny Steel Blade
TTITLE2=Burning on the Brink
TTITLE3=I Only Get Turned On When I Get the Money Out
TTITLE4=My Name is Poison
TTITLE5=I'm Bad Baby
TTITLE6=This Town Will Kill You
TTITLE7=Their Honeymoon Won't Last
TTITLE8=Burlesque
TTITLE9=Black John
TTITLE10=Driving All Night
EXTD=
EXTT0=
EXTT1=
EXTT2=
EXTT3=
EXTT4=
EXTT5=
EXTT6=
EXTT7=
EXTT8=
EXTT9=
EXTT10=
PLAYORDER=
